<svg xmlns="http://www.w3.org/2000/svg" xmlns:xlink="http://www.w3.org/1999/xlink" width="2000" zoomAndPan="magnify" viewBox="0 0 1500 1499.999933" height="2000" preserveAspectRatio="xMidYMid meet" version="1.0"><defs><g/><clipPath id="27e9f7ade9"><path d="M 37.5 0 L 1462.5 0 C 1472.445312 0 1481.984375 3.949219 1489.015625 10.984375 C 1496.050781 18.015625 1500 27.554688 1500 37.5 L 1500 1462.5 C 1500 1472.445312 1496.050781 1481.984375 1489.015625 1489.015625 C 1481.984375 1496.050781 1472.445312 1500 1462.5 1500 L 37.5 1500 C 27.554688 1500 18.015625 1496.050781 10.984375 1489.015625 C 3.949219 1481.984375 0 1472.445312 0 1462.5 L 0 37.5 C 0 27.554688 3.949219 18.015625 10.984375 10.984375 C 18.015625 3.949219 27.554688 0 37.5 0 Z M 37.5 0 " clip-rule="nonzero"/></clipPath><clipPath id="db852dbbfd"><path d="M 0 0 L 1500 0 L 1500 1500 L 0 1500 Z M 0 0 " clip-rule="nonzero"/></clipPath><clipPath id="d408a64909"><path d="M 37.5 0 L 1462.5 0 C 1472.445312 0 1481.984375 3.949219 1489.015625 10.984375 C 1496.050781 18.015625 1500 27.554688 1500 37.5 L 1500 1462.5 C 1500 1472.445312 1496.050781 1481.984375 1489.015625 1489.015625 C 1481.984375 1496.050781 1472.445312 1500 1462.5 1500 L 37.5 1500 C 27.554688 1500 18.015625 1496.050781 10.984375 1489.015625 C 3.949219 1481.984375 0 1472.445312 0 1462.5 L 0 37.5 C 0 27.554688 3.949219 18.015625 10.984375 10.984375 C 18.015625 3.949219 27.554688 0 37.5 0 Z M 37.5 0 " clip-rule="nonzero"/></clipPath><clipPath id="eefbeb2f29"><rect x="0" width="1500" y="0" height="1500"/></clipPath><clipPath id="6929a008eb"><rect x="0" width="758" y="0" height="1225"/></clipPath></defs><rect x="-150" width="1800" fill="#ffffff" y="-149.999993" height="1799.99992" fill-opacity="1"/><rect x="-150" width="1800" fill="#ffffff" y="-149.999993" height="1799.99992" fill-opacity="1"/><g clip-path="url(#27e9f7ade9)"><g transform="matrix(1, 0, 0, 1, 0, 0.000000000000112861)"><g clip-path="url(#eefbeb2f29)"><g clip-path="url(#db852dbbfd)"><g clip-path="url(#d408a64909)"><rect x="-330" width="2160" fill="#fafbfc" height="2159.999904" y="-329.999985" fill-opacity="1"/></g></g></g></g></g><g transform="matrix(1, 0, 0, 1, 371, 137)"><g clip-path="url(#6929a008eb)"><g fill="#0d1116" fill-opacity="1"><g transform="translate(0.549826, 961.481631)"><g><path d="M 652.65625 -744.953125 C 659.164062 -744.953125 664.957031 -742.78125 670.03125 -738.4375 C 674.375 -733.375 676.546875 -727.582031 676.546875 -721.0625 L 676.546875 -23.890625 C 676.546875 -17.378906 674.375 -11.953125 670.03125 -7.609375 C 664.957031 -2.535156 659.164062 0 652.65625 0 L 551.65625 0 C 545.144531 0 539.71875 -2.535156 535.375 -7.609375 C 530.300781 -11.953125 527.765625 -17.378906 527.765625 -23.890625 L 527.765625 -487.59375 L 438.71875 -346.421875 C 435.101562 -340.628906 430.035156 -335.5625 423.515625 -331.21875 C 416.273438 -327.59375 409.398438 -325.78125 402.890625 -325.78125 L 355.109375 -325.78125 C 348.585938 -325.78125 341.707031 -327.59375 334.46875 -331.21875 C 327.957031 -335.5625 322.890625 -340.628906 319.265625 -346.421875 L 229.140625 -488.671875 L 229.140625 -23.890625 C 229.140625 -17.378906 226.96875 -11.953125 222.625 -7.609375 C 217.550781 -2.535156 211.757812 0 205.25 0 L 104.25 0 C 97.738281 0 92.3125 -2.535156 87.96875 -7.609375 C 82.894531 -11.953125 80.359375 -17.378906 80.359375 -23.890625 L 80.359375 -721.0625 C 80.359375 -727.582031 82.894531 -733.375 87.96875 -738.4375 C 92.3125 -742.78125 97.738281 -744.953125 104.25 -744.953125 L 205.25 -744.953125 L 212.84375 -743.875 C 216.46875 -743.144531 220.085938 -741.332031 223.703125 -738.4375 C 230.941406 -734.820312 236.375 -730.117188 240 -724.328125 L 379 -484.328125 L 518 -724.328125 C 521.613281 -730.117188 526.679688 -734.820312 533.203125 -738.4375 L 541.890625 -742.78125 C 544.785156 -744.226562 548.039062 -744.953125 551.65625 -744.953125 Z M 652.65625 -744.953125 "/></g></g></g></g></g></svg>