<svg xmlns="http://www.w3.org/2000/svg" xmlns:xlink="http://www.w3.org/1999/xlink" width="2000" zoomAndPan="magnify" viewBox="0 0 1500 1499.999933" height="2000" preserveAspectRatio="xMidYMid meet" version="1.0"><defs><g/><clipPath id="24ffdde9cb"><path d="M 37.5 0 L 1462.5 0 C 1472.445312 0 1481.984375 3.949219 1489.015625 10.984375 C 1496.050781 18.015625 1500 27.554688 1500 37.5 L 1500 1462.5 C 1500 1472.445312 1496.050781 1481.984375 1489.015625 1489.015625 C 1481.984375 1496.050781 1472.445312 1500 1462.5 1500 L 37.5 1500 C 27.554688 1500 18.015625 1496.050781 10.984375 1489.015625 C 3.949219 1481.984375 0 1472.445312 0 1462.5 L 0 37.5 C 0 27.554688 3.949219 18.015625 10.984375 10.984375 C 18.015625 3.949219 27.554688 0 37.5 0 Z M 37.5 0 " clip-rule="nonzero"/></clipPath><clipPath id="68ce7cc70a"><path d="M 0 0 L 1500 0 L 1500 1500 L 0 1500 Z M 0 0 " clip-rule="nonzero"/></clipPath><clipPath id="230ba7bede"><path d="M 37.5 0 L 1462.5 0 C 1472.445312 0 1481.984375 3.949219 1489.015625 10.984375 C 1496.050781 18.015625 1500 27.554688 1500 37.5 L 1500 1462.5 C 1500 1472.445312 1496.050781 1481.984375 1489.015625 1489.015625 C 1481.984375 1496.050781 1472.445312 1500 1462.5 1500 L 37.5 1500 C 27.554688 1500 18.015625 1496.050781 10.984375 1489.015625 C 3.949219 1481.984375 0 1472.445312 0 1462.5 L 0 37.5 C 0 27.554688 3.949219 18.015625 10.984375 10.984375 C 18.015625 3.949219 27.554688 0 37.5 0 Z M 37.5 0 " clip-rule="nonzero"/></clipPath><clipPath id="fb6bbfb6ed"><rect x="0" width="1500" y="0" height="1500"/></clipPath><clipPath id="34e0ae1cde"><rect x="0" width="882" y="0" height="1126"/></clipPath></defs><g clip-path="url(#24ffdde9cb)"><g transform="matrix(1, 0, 0, 1, 0, 0.000000000000112861)"><g clip-path="url(#fb6bbfb6ed)"><g clip-path="url(#68ce7cc70a)"><g clip-path="url(#230ba7bede)"><rect x="-330" width="2160" fill="#fafbfc" height="2159.999904" y="-329.999985" fill-opacity="1"/></g></g></g></g></g><g transform="matrix(1, 0, 0, 1, 309, 187)"><g clip-path="url(#34e0ae1cde)"><g fill="#0d1116" fill-opacity="1"><g transform="translate(0.74028, 893.6252)"><g><path d="M 679.53125 0 L 678.609375 -427.8125 L 466.546875 -73.765625 L 413.0625 -73.765625 L 201 -422.28125 L 201 0 L 86.671875 0 L 86.671875 -645.40625 L 185.328125 -645.40625 L 441.640625 -217.59375 L 693.359375 -645.40625 L 792.015625 -645.40625 L 792.9375 0 Z M 679.53125 0 "/></g></g></g></g></g></svg>